<?xml version="1.0" encoding="UTF-8" standalone="no"?>
<svg
   width="510.15601"
   height="510.15234"
   viewBox="0 0 510.15598 510.15233"
   version="1.1"
   id="svg1129"
   sodipodi:docname="busliste-qrcode.svg"
   inkscape:version="1.2.1 (9c6d41e410, 2022-07-14, custom)"
   xmlns:inkscape="http://www.inkscape.org/namespaces/inkscape"
   xmlns:sodipodi="http://sodipodi.sourceforge.net/DTD/sodipodi-0.dtd"
   xmlns:xlink="http://www.w3.org/1999/xlink"
   xmlns="http://www.w3.org/2000/svg"
   xmlns:svg="http://www.w3.org/2000/svg">
  <sodipodi:namedview
     id="namedview1131"
     pagecolor="#505050"
     bordercolor="#eeeeee"
     borderopacity="1"
     inkscape:showpageshadow="0"
     inkscape:pageopacity="0"
     inkscape:pagecheckerboard="0"
     inkscape:deskcolor="#505050"
     showgrid="false"
     inkscape:zoom="0.59746522"
     inkscape:cx="297.92529"
     inkscape:cy="420.94501"
     inkscape:window-width="1128"
     inkscape:window-height="720"
     inkscape:window-x="0"
     inkscape:window-y="0"
     inkscape:window-maximized="1"
     inkscape:current-layer="svg1129" />
  <defs
     id="defs1125">
    <clipPath
       id="clip-0">
      <path
         clip-rule="nonzero"
         d="M 0.519531,0.355469 H 510.67578 V 510.50781 H 0.519531 Z m 0,0"
         id="path656" />
    </clipPath>
    <clipPath
       id="clip-1">
      <rect
         x="0"
         y="0"
         width="511"
         height="511"
         id="rect659" />
    </clipPath>
    <g
       id="source-5"
       clip-path="url(#clip-1)">
      <g
         clip-path="url(#clip-0)"
         id="g664">
        <path
           fill-rule="nonzero"
           fill="#ffffff"
           fill-opacity="1"
           d="M 0.519531,0.355469 H 510.67578 V 510.50781 H 0.519531 Z m 0,0"
           id="path662" />
      </g>
      <path
         fill-rule="nonzero"
         fill="#000000"
         fill-opacity="1"
         d="M 212.14453,53.65625 H 194.02734 V 41.574219 c 0,-3.320313 2.71485,-6.039063 6.03516,-6.039063 h 12.08203 z m 0,0"
         id="path666" />
      <path
         fill-rule="nonzero"
         fill="#000000"
         fill-opacity="1"
         d="M 211.61719,53.65625 V 35.535156 h 12.08203 c 3.32031,0 6.03515,2.71875 6.03515,6.039063 V 53.65625 Z m 0,0"
         id="path668" />
      <path
         fill-rule="nonzero"
         fill="#000000"
         fill-opacity="1"
         d="m 263.10937,43.992188 c -2.71875,-5.132813 -8.45312,-8.757813 -12.68359,-8.457032 -3.92578,0.304688 -4.83203,4.832032 -2.11328,9.667969 3.01562,5.128906 8.45703,8.753906 12.68359,8.453125 4.22266,-0.304688 5.13282,-4.832031 2.11328,-9.664062 z m 0,0"
         id="path670" />
      <path
         fill-rule="nonzero"
         fill="#000000"
         fill-opacity="1"
         d="m 284.39844,35.535156 c 4.23047,0 15.70312,13.894532 15.70312,18.121094 H 281.98437 V 37.953125 c 0,-1.207031 1.20704,-2.417969 2.41407,-2.417969 z m 0,0"
         id="path672" />
      <path
         fill-rule="nonzero"
         fill="#000000"
         fill-opacity="1"
         d="M 212.14453,53.128906 V 71.246094 H 200.0625 c -3.32031,0 -6.03516,-2.71875 -6.03516,-6.039063 V 53.128906 Z m 0,0"
         id="path674" />
      <path
         fill-rule="nonzero"
         fill="#000000"
         fill-opacity="1"
         d="m 211.61719,53.128906 h 18.11718 v 12.078125 c 0,3.320313 -2.71484,6.039063 -6.03515,6.039063 h -12.08203 z m 0,0"
         id="path676" />
      <path
         fill-rule="nonzero"
         fill="#000000"
         fill-opacity="1"
         d="m 281.98437,53.128906 h 18.11719 v 18.117188 h -18.11719 z m 0,0"
         id="path678" />
      <path
         fill-rule="nonzero"
         fill="#000000"
         fill-opacity="1"
         d="m 178.85156,70.71875 c 4.23047,0 15.70313,13.894531 15.70313,18.121094 H 176.4375 V 73.136719 c 0,-1.207031 1.20703,-2.417969 2.41406,-2.417969 z m 0,0"
         id="path680" />
      <path
         fill-rule="nonzero"
         fill="#000000"
         fill-opacity="1"
         d="m 249.21484,70.71875 c 4.23047,0 15.70313,13.894531 15.70313,18.121094 H 246.80078 V 73.136719 c 0,-1.207031 1.20703,-2.417969 2.41406,-2.417969 z m 0,0"
         id="path682" />
      <path
         fill-rule="nonzero"
         fill="#000000"
         fill-opacity="1"
         d="m 300.10156,70.71875 v 18.121094 h -12.07812 c -3.32032,0 -6.03907,-2.71875 -6.03907,-6.039063 V 70.71875 Z m 0,0"
         id="path684" />
      <path
         fill-rule="nonzero"
         fill="#000000"
         fill-opacity="1"
         d="m 317.69531,73.136719 c 0,4.230469 -13.89453,15.703125 -18.12109,15.703125 V 70.71875 h 15.70312 c 1.20703,0 2.41797,1.210938 2.41797,2.417969 z m 0,0"
         id="path686" />
      <path
         fill-rule="nonzero"
         fill="#000000"
         fill-opacity="1"
         d="m 176.4375,88.3125 h 18.11719 v 18.11719 H 176.4375 Z m 0,0"
         id="path688" />
      <path
         fill-rule="nonzero"
         fill="#000000"
         fill-opacity="1"
         d="M 194.02734,106.42969 V 88.3125 h 12.07813 c 3.32031,0 6.03906,2.714844 6.03906,6.035156 v 12.082034 z m 0,0"
         id="path690" />
      <path
         fill-rule="nonzero"
         fill="#000000"
         fill-opacity="1"
         d="m 262.50391,106.42969 c -4.22657,0 -15.70313,-13.890628 -15.70313,-18.11719 h 18.11719 v 15.70313 c 0,1.20703 -1.20703,2.41406 -2.41406,2.41406 z m 0,0"
         id="path692" />
      <path
         fill-rule="nonzero"
         fill="#000000"
         fill-opacity="1"
         d="m 333.47266,96.769531 c -2.71485,-5.136719 -8.45313,-8.761719 -12.6836,-8.457031 -3.92187,0.300781 -4.82812,4.828125 -2.11328,9.664062 3.01953,5.132818 8.45703,8.753908 12.68359,8.453128 4.22657,-0.30078 5.13672,-4.83203 2.11329,-9.660159 z m 0,0"
         id="path694" />
      <path
         fill-rule="nonzero"
         fill="#000000"
         fill-opacity="1"
         d="m 176.4375,105.90234 h 18.11719 v 18.11719 H 176.4375 Z m 0,0"
         id="path696" />
      <path
         fill-rule="nonzero"
         fill="#000000"
         fill-opacity="1"
         d="m 194.02734,105.90234 h 18.11719 v 18.11719 h -18.11719 z m 0,0"
         id="path698" />
      <path
         fill-rule="nonzero"
         fill="#000000"
         fill-opacity="1"
         d="m 211.61719,124.01953 v -18.11719 h 12.08203 c 3.32031,0 6.03515,2.71875 6.03515,6.03907 v 12.07812 z m 0,0"
         id="path700" />
      <path
         fill-rule="nonzero"
         fill="#000000"
         fill-opacity="1"
         d="m 266.80859,105.90234 c 4.23047,0 15.70313,13.89063 15.70313,18.11719 h -18.11719 v -15.69922 c 0,-1.21093 1.20703,-2.41797 2.41406,-2.41797 z m 0,0"
         id="path702" />
      <path
         fill-rule="nonzero"
         fill="#000000"
         fill-opacity="1"
         d="m 301.99219,105.90234 c 4.23047,0 15.70312,13.89063 15.70312,18.11719 h -18.12109 v -15.69922 c 0,-1.21093 1.21094,-2.41797 2.41797,-2.41797 z m 0,0"
         id="path704" />
      <path
         fill-rule="nonzero"
         fill="#000000"
         fill-opacity="1"
         d="m 176.4375,123.49609 h 18.11719 v 18.11719 H 176.4375 Z m 0,0"
         id="path706" />
      <path
         fill-rule="nonzero"
         fill="#000000"
         fill-opacity="1"
         d="m 194.02734,123.49609 h 18.11719 v 18.11719 h -18.11719 z m 0,0"
         id="path708" />
      <path
         fill-rule="nonzero"
         fill="#000000"
         fill-opacity="1"
         d="m 211.61719,123.49609 h 18.11718 v 18.11719 h -18.11718 z m 0,0"
         id="path710" />
      <path
         fill-rule="nonzero"
         fill="#000000"
         fill-opacity="1"
         d="m 282.51172,123.49609 v 18.11719 h -12.08203 c -3.32032,0 -6.03516,-2.71875 -6.03516,-6.03906 v -12.07813 z m 0,0"
         id="path712" />
      <path
         fill-rule="nonzero"
         fill="#000000"
         fill-opacity="1"
         d="m 281.98437,123.49609 h 18.11719 v 18.11719 h -18.11719 z m 0,0"
         id="path714" />
      <path
         fill-rule="nonzero"
         fill="#000000"
         fill-opacity="1"
         d="m 299.57422,123.49609 h 18.12109 v 18.11719 h -18.12109 z m 0,0"
         id="path716" />
      <path
         fill-rule="nonzero"
         fill="#000000"
         fill-opacity="1"
         d="m 317.16797,141.61328 v -18.11719 h 12.07812 c 3.32032,0 6.03907,2.71485 6.03907,6.03516 v 12.08203 z m 0,0"
         id="path718" />
      <path
         fill-rule="nonzero"
         fill="#000000"
         fill-opacity="1"
         d="m 176.4375,141.08594 h 18.11719 v 18.11718 H 176.4375 Z m 0,0"
         id="path720" />
      <path
         fill-rule="nonzero"
         fill="#000000"
         fill-opacity="1"
         d="m 227.32031,159.20312 c -4.22656,0 -15.70312,-13.89062 -15.70312,-18.11718 h 18.11718 v 15.70312 c 0,1.20703 -1.20703,2.41406 -2.41406,2.41406 z m 0,0"
         id="path722" />
      <path
         fill-rule="nonzero"
         fill="#000000"
         fill-opacity="1"
         d="m 249.21484,141.08594 c 4.23047,0 15.70313,13.89062 15.70313,18.11718 H 246.80078 V 143.5 c 0,-1.20703 1.20703,-2.41406 2.41406,-2.41406 z m 0,0"
         id="path724" />
      <path
         fill-rule="nonzero"
         fill="#000000"
         fill-opacity="1"
         d="m 297.6875,159.20312 c -4.22656,0 -15.70313,-13.89062 -15.70313,-18.11718 h 18.11719 v 15.70312 c 0,1.20703 -1.20703,2.41406 -2.41406,2.41406 z m 0,0"
         id="path726" />
      <path
         fill-rule="nonzero"
         fill="#000000"
         fill-opacity="1"
         d="m 332.87109,159.20312 c -4.22656,0 -15.70312,-13.89062 -15.70312,-18.11718 h 18.11719 v 15.70312 c 0,1.20703 -1.20704,2.41406 -2.41407,2.41406 z m 0,0"
         id="path728" />
      <path
         fill-rule="nonzero"
         fill="#000000"
         fill-opacity="1"
         d="m 194.55469,158.67969 v 18.11718 h -12.08203 c -3.32032,0 -6.03516,-2.71875 -6.03516,-6.03906 v -12.07812 z m 0,0"
         id="path730" />
      <path
         fill-rule="nonzero"
         fill="#000000"
         fill-opacity="1"
         d="m 194.02734,176.79687 v -18.11718 h 12.07813 c 3.32031,0 6.03906,2.71484 6.03906,6.03515 v 12.08203 z m 0,0"
         id="path732" />
      <path
         fill-rule="nonzero"
         fill="#000000"
         fill-opacity="1"
         d="m 246.80078,158.67969 h 18.11719 v 18.11718 h -18.11719 z m 0,0"
         id="path734" />
      <path
         fill-rule="nonzero"
         fill="#000000"
         fill-opacity="1"
         d="m 282.51172,161.09375 c 0,4.23047 -13.89063,15.70312 -18.11719,15.70312 v -18.11718 h 15.69922 c 1.21094,0 2.41797,1.20703 2.41797,2.41406 z m 0,0"
         id="path736" />
      <path
         fill-rule="nonzero"
         fill="#000000"
         fill-opacity="1"
         d="m 38.117188,176.26953 c 4.230468,0 15.703124,13.89063 15.703124,18.11719 H 35.703125 v -15.70313 c 0,-1.20703 1.207031,-2.41406 2.414063,-2.41406 z m 0,0"
         id="path738" />
      <path
         fill-rule="nonzero"
         fill="#000000"
         fill-opacity="1"
         d="m 70.886719,191.97266 c 0,-4.22657 13.890625,-15.70313 18.117187,-15.70313 v 18.11719 H 73.300781 c -1.207031,0 -2.414062,-1.20703 -2.414062,-2.41406 z m 0,0"
         id="path740" />
      <path
         fill-rule="nonzero"
         fill="#000000"
         fill-opacity="1"
         d="m 88.476562,176.26953 h 18.117188 v 18.11719 H 88.476562 Z m 0,0"
         id="path742" />
      <path
         fill-rule="nonzero"
         fill="#000000"
         fill-opacity="1"
         d="m 106.07031,176.26953 h 18.11719 v 18.11719 h -18.11719 z m 0,0"
         id="path744" />
      <path
         fill-rule="nonzero"
         fill="#000000"
         fill-opacity="1"
         d="m 123.66016,176.26953 h 18.11718 v 18.11719 h -18.11718 z m 0,0"
         id="path746" />
      <path
         fill-rule="nonzero"
         fill="#000000"
         fill-opacity="1"
         d="m 159.37109,178.68359 c 0,4.23047 -13.89453,15.70313 -18.11718,15.70313 v -18.11719 h 15.69921 c 1.20704,0 2.41797,1.20703 2.41797,2.41406 z m 0,0"
         id="path748" />
      <path
         fill-rule="nonzero"
         fill="#000000"
         fill-opacity="1"
         d="m 194.02734,176.26953 h 18.11719 v 18.11719 h -18.11719 z m 0,0"
         id="path750" />
      <path
         fill-rule="nonzero"
         fill="#000000"
         fill-opacity="1"
         d="m 211.61719,176.26953 h 18.11718 v 18.11719 h -18.11718 z m 0,0"
         id="path752" />
      <path
         fill-rule="nonzero"
         fill="#000000"
         fill-opacity="1"
         d="m 229.21094,176.26953 h 18.11718 v 18.11719 h -18.11718 z m 0,0"
         id="path754" />
      <path
         fill-rule="nonzero"
         fill="#000000"
         fill-opacity="1"
         d="m 246.80078,176.26953 h 18.11719 v 12.07813 c 0,3.32421 -2.71485,6.03906 -6.03516,6.03906 h -12.08203 z m 0,0"
         id="path756" />
      <path
         fill-rule="nonzero"
         fill="#000000"
         fill-opacity="1"
         d="m 298.29297,184.72656 c -2.71875,-5.13672 -8.45313,-8.75781 -12.6836,-8.45703 -3.92578,0.30078 -4.83203,4.83203 -2.11328,9.66406 3.01563,5.13282 8.45703,8.75391 12.6836,8.45313 4.22656,-0.30078 5.13281,-4.82813 2.11328,-9.66016 z m 0,0"
         id="path758" />
      <path
         fill-rule="nonzero"
         fill="#000000"
         fill-opacity="1"
         d="m 319.58203,176.26953 c 4.23047,0 15.70313,13.89063 15.70313,18.11719 h -18.11719 v -15.70313 c 0,-1.20703 1.20703,-2.41406 2.41406,-2.41406 z m 0,0"
         id="path760" />
      <path
         fill-rule="nonzero"
         fill="#000000"
         fill-opacity="1"
         d="m 370.46875,194.38672 h -18.11719 v -12.07813 c 0,-3.32031 2.71485,-6.03906 6.03516,-6.03906 h 12.08203 z m 0,0"
         id="path762" />
      <path
         fill-rule="nonzero"
         fill="#000000"
         fill-opacity="1"
         d="m 369.94141,176.26953 h 18.11718 v 18.11719 h -18.11718 z m 0,0"
         id="path764" />
      <path
         fill-rule="nonzero"
         fill="#000000"
         fill-opacity="1"
         d="m 387.53516,176.26953 h 18.11718 v 18.11719 h -18.11718 z m 0,0"
         id="path766" />
      <path
         fill-rule="nonzero"
         fill="#000000"
         fill-opacity="1"
         d="m 405.125,176.26953 h 18.11719 v 18.11719 H 405.125 Z m 0,0"
         id="path768" />
      <path
         fill-rule="nonzero"
         fill="#000000"
         fill-opacity="1"
         d="m 440.83594,178.68359 c 0,4.23047 -13.89063,15.70313 -18.11719,15.70313 v -18.11719 h 15.69922 c 1.20703,0 2.41797,1.20703 2.41797,2.41406 z m 0,0"
         id="path770" />
      <path
         fill-rule="nonzero"
         fill="#000000"
         fill-opacity="1"
         d="m 51.40625,211.97656 c -4.226562,0 -15.703125,-13.89062 -15.703125,-18.11719 h 18.117187 v 15.70313 c 0,1.20703 -1.207031,2.41406 -2.414062,2.41406 z m 0,0"
         id="path772" />
      <path
         fill-rule="nonzero"
         fill="#000000"
         fill-opacity="1"
         d="m 106.07031,193.85937 h 18.11719 v 18.11719 h -18.11719 z m 0,0"
         id="path774" />
      <path
         fill-rule="nonzero"
         fill="#000000"
         fill-opacity="1"
         d="m 209.73047,211.97656 c -4.22656,0 -15.70313,-13.89062 -15.70313,-18.11719 h 18.11719 v 15.70313 c 0,1.20703 -1.20703,2.41406 -2.41406,2.41406 z m 0,0"
         id="path776" />
      <path
         fill-rule="nonzero"
         fill="#000000"
         fill-opacity="1"
         d="m 317.16797,193.85937 h 18.11719 v 18.11719 h -18.11719 z m 0,0"
         id="path778" />
      <path
         fill-rule="nonzero"
         fill="#000000"
         fill-opacity="1"
         d="m 334.75781,193.85937 h 18.1211 v 18.11719 h -18.1211 z m 0,0"
         id="path780" />
      <path
         fill-rule="nonzero"
         fill="#000000"
         fill-opacity="1"
         d="m 352.35156,193.85937 h 18.11719 v 18.11719 h -18.11719 z m 0,0"
         id="path782" />
      <path
         fill-rule="nonzero"
         fill="#000000"
         fill-opacity="1"
         d="m 369.94141,193.85937 h 18.11718 v 12.08204 c 0,3.32031 -2.71484,6.03515 -6.03515,6.03515 h -12.08203 z m 0,0"
         id="path784" />
      <path
         fill-rule="nonzero"
         fill="#000000"
         fill-opacity="1"
         d="m 442.72266,193.85937 c 4.23046,0 15.70312,13.89063 15.70312,18.11719 h -18.11719 v -15.69922 c 0,-1.21093 1.20703,-2.41797 2.41407,-2.41797 z m 0,0"
         id="path786" />
      <path
         fill-rule="nonzero"
         fill="#000000"
         fill-opacity="1"
         d="M 71.414062,229.57031 H 53.292969 v -12.07812 c 0,-3.32422 2.71875,-6.03907 6.039062,-6.03907 h 12.082031 z m 0,0"
         id="path788" />
      <path
         fill-rule="nonzero"
         fill="#000000"
         fill-opacity="1"
         d="m 70.886719,211.45312 h 18.117187 v 18.11719 H 70.886719 Z m 0,0"
         id="path790" />
      <path
         fill-rule="nonzero"
         fill="#000000"
         fill-opacity="1"
         d="m 88.476562,211.45312 h 18.117188 v 18.11719 H 88.476562 Z m 0,0"
         id="path792" />
      <path
         fill-rule="nonzero"
         fill="#000000"
         fill-opacity="1"
         d="m 106.07031,211.45312 h 18.11719 v 18.11719 h -18.11719 z m 0,0"
         id="path794" />
      <path
         fill-rule="nonzero"
         fill="#000000"
         fill-opacity="1"
         d="m 123.66016,211.45312 h 18.11718 v 18.11719 h -18.11718 z m 0,0"
         id="path796" />
      <path
         fill-rule="nonzero"
         fill="#000000"
         fill-opacity="1"
         d="m 159.37109,213.86719 c 0,4.23047 -13.89453,15.70312 -18.11718,15.70312 v -18.11719 h 15.69921 c 1.20704,0 2.41797,1.20704 2.41797,2.41407 z m 0,0"
         id="path798" />
      <path
         fill-rule="nonzero"
         fill="#000000"
         fill-opacity="1"
         d="m 178.85156,211.45312 c 4.23047,0 15.70313,13.89063 15.70313,18.11719 H 176.4375 v -15.70312 c 0,-1.20703 1.20703,-2.41407 2.41406,-2.41407 z m 0,0"
         id="path800" />
      <path
         fill-rule="nonzero"
         fill="#000000"
         fill-opacity="1"
         d="m 214.03516,211.45312 c 4.23046,0 15.69921,13.89063 15.69921,18.11719 h -18.11718 v -15.70312 c 0,-1.20703 1.20703,-2.41407 2.41797,-2.41407 z m 0,0"
         id="path802" />
      <path
         fill-rule="nonzero"
         fill="#000000"
         fill-opacity="1"
         d="m 299.57422,227.15625 c 0,-4.22656 13.89453,-15.70313 18.12109,-15.70313 v 18.11719 h -15.70312 c -1.20703,0 -2.41797,-1.20703 -2.41797,-2.41406 z m 0,0"
         id="path804" />
      <path
         fill-rule="nonzero"
         fill="#000000"
         fill-opacity="1"
         d="m 317.16797,211.45312 h 18.11719 v 18.11719 h -18.11719 z m 0,0"
         id="path806" />
      <path
         fill-rule="nonzero"
         fill="#000000"
         fill-opacity="1"
         d="m 334.75781,211.45312 h 18.1211 v 18.11719 h -18.1211 z m 0,0"
         id="path808" />
      <path
         fill-rule="nonzero"
         fill="#000000"
         fill-opacity="1"
         d="m 387.53516,227.15625 c 0,-4.22656 13.89062,-15.70313 18.11718,-15.70313 v 18.11719 h -15.70312 c -1.20703,0 -2.41406,-1.20703 -2.41406,-2.41406 z m 0,0"
         id="path810" />
      <path
         fill-rule="nonzero"
         fill="#000000"
         fill-opacity="1"
         d="m 423.24219,213.86719 c 0,4.23047 -13.89063,15.70312 -18.11719,15.70312 v -18.11719 h 15.70312 c 1.20704,0 2.41407,1.20704 2.41407,2.41407 z m 0,0"
         id="path812" />
      <path
         fill-rule="nonzero"
         fill="#000000"
         fill-opacity="1"
         d="m 458.42578,211.45312 v 18.11719 h -12.07812 c -3.32032,0 -6.03907,-2.71875 -6.03907,-6.03906 v -12.07813 z m 0,0"
         id="path814" />
      <path
         fill-rule="nonzero"
         fill="#000000"
         fill-opacity="1"
         d="m 457.89844,229.57031 v -18.11719 h 12.08203 c 3.32031,0 6.03515,2.71485 6.03515,6.03907 v 12.07812 z m 0,0"
         id="path816" />
      <path
         fill-rule="nonzero"
         fill="#000000"
         fill-opacity="1"
         d="m 53.292969,229.04297 h 18.121093 v 18.11719 H 53.292969 Z m 0,0"
         id="path818" />
      <path
         fill-rule="nonzero"
         fill="#000000"
         fill-opacity="1"
         d="m 124.1875,229.04297 v 18.11719 h -12.08203 c -3.32031,0 -6.03516,-2.71485 -6.03516,-6.03516 v -12.08203 z m 0,0"
         id="path820" />
      <path
         fill-rule="nonzero"
         fill="#000000"
         fill-opacity="1"
         d="m 123.66016,229.04297 h 18.11718 V 241.125 c 0,3.32031 -2.71484,6.03516 -6.03515,6.03516 h -12.08203 z m 0,0"
         id="path822" />
      <path
         fill-rule="nonzero"
         fill="#000000"
         fill-opacity="1"
         d="m 194.55469,229.04297 v 18.11719 h -12.08203 c -3.32032,0 -6.03516,-2.71485 -6.03516,-6.03516 v -12.08203 z m 0,0"
         id="path824" />
      <path
         fill-rule="nonzero"
         fill="#000000"
         fill-opacity="1"
         d="m 194.02734,229.04297 h 18.11719 v 18.11719 h -18.11719 z m 0,0"
         id="path826" />
      <path
         fill-rule="nonzero"
         fill="#000000"
         fill-opacity="1"
         d="m 211.61719,229.04297 h 18.11718 v 18.11719 h -18.11718 z m 0,0"
         id="path828" />
      <path
         fill-rule="nonzero"
         fill="#000000"
         fill-opacity="1"
         d="m 263.10937,237.5 c -2.71875,-5.13672 -8.45312,-8.75781 -12.68359,-8.45703 -3.92578,0.30469 -4.83203,4.83203 -2.11328,9.66406 3.01562,5.13281 8.45703,8.75781 12.68359,8.45313 4.22266,-0.30079 5.13282,-4.82813 2.11328,-9.66016 z m 0,0"
         id="path830" />
      <path
         fill-rule="nonzero"
         fill="#000000"
         fill-opacity="1"
         d="m 298.29297,237.5 c -2.71875,-5.13672 -8.45313,-8.75781 -12.6836,-8.45703 -3.92578,0.30469 -4.83203,4.83203 -2.11328,9.66406 3.01563,5.13281 8.45703,8.75781 12.6836,8.45313 4.22656,-0.30079 5.13281,-4.82813 2.11328,-9.66016 z m 0,0"
         id="path832" />
      <path
         fill-rule="nonzero"
         fill="#000000"
         fill-opacity="1"
         d="m 350.46094,247.16016 c -4.22657,0 -15.70313,-13.89063 -15.70313,-18.11719 h 18.1211 v 15.70312 c 0,1.20703 -1.21094,2.41407 -2.41797,2.41407 z m 0,0"
         id="path834" />
      <path
         fill-rule="nonzero"
         fill="#000000"
         fill-opacity="1"
         d="m 386.25,237.5 c -2.71875,-5.13672 -8.45313,-8.75781 -12.68359,-8.45703 -3.92579,0.30469 -4.83204,4.83203 -2.11329,9.66406 3.01563,5.13281 8.45704,8.75781 12.6836,8.45313 4.22656,-0.30079 5.13281,-4.82813 2.11328,-9.66016 z m 0,0"
         id="path836" />
      <path
         fill-rule="nonzero"
         fill="#000000"
         fill-opacity="1"
         d="m 457.89844,229.04297 h 18.11718 v 18.11719 h -18.11718 z m 0,0"
         id="path838" />
      <path
         fill-rule="nonzero"
         fill="#000000"
         fill-opacity="1"
         d="m 71.414062,246.63672 v 18.11719 H 59.332031 c -3.320312,0 -6.039062,-2.71875 -6.039062,-6.03907 v -12.07812 z m 0,0"
         id="path840" />
      <path
         fill-rule="nonzero"
         fill="#000000"
         fill-opacity="1"
         d="m 70.886719,264.75391 v -18.11719 h 12.078125 c 3.320312,0 6.039062,2.71484 6.039062,6.03515 v 12.08204 z m 0,0"
         id="path842" />
      <path
         fill-rule="nonzero"
         fill="#000000"
         fill-opacity="1"
         d="m 157.55859,255.09375 c -2.71875,-5.13672 -8.45312,-8.76172 -12.68359,-8.45703 -3.92578,0.30078 -4.83203,4.82812 -2.11328,9.66406 3.01953,5.13281 8.45703,8.75391 12.68359,8.45313 4.22656,-0.30469 5.13672,-4.83204 2.11328,-9.66016 z m 0,0"
         id="path844" />
      <path
         fill-rule="nonzero"
         fill="#000000"
         fill-opacity="1"
         d="m 194.02734,246.63672 h 18.11719 v 18.11719 h -18.11719 z m 0,0"
         id="path846" />
      <path
         fill-rule="nonzero"
         fill="#000000"
         fill-opacity="1"
         d="m 211.61719,246.63672 h 18.11718 v 12.07812 c 0,3.32032 -2.71484,6.03907 -6.03515,6.03907 h -12.08203 z m 0,0"
         id="path848" />
      <path
         fill-rule="nonzero"
         fill="#000000"
         fill-opacity="1"
         d="m 422.71875,262.33594 c 0,-4.22657 13.89062,-15.69922 18.11719,-15.69922 v 18.11719 h -15.70313 c -1.20703,0 -2.41406,-1.20704 -2.41406,-2.41797 z m 0,0"
         id="path850" />
      <path
         fill-rule="nonzero"
         fill="#000000"
         fill-opacity="1"
         d="m 440.30859,246.63672 h 18.11719 v 18.11719 h -18.11719 z m 0,0"
         id="path852" />
      <path
         fill-rule="nonzero"
         fill="#000000"
         fill-opacity="1"
         d="m 457.89844,246.63672 h 18.11718 v 12.07812 c 0,3.32032 -2.71484,6.03907 -6.03515,6.03907 h -12.08203 z m 0,0"
         id="path854" />
      <path
         fill-rule="nonzero"
         fill="#000000"
         fill-opacity="1"
         d="m 38.117188,264.22656 c 4.230468,0 15.703124,13.89063 15.703124,18.11719 H 35.703125 v -15.70313 c 0,-1.20703 1.207031,-2.41406 2.414063,-2.41406 z m 0,0"
         id="path856" />
      <path
         fill-rule="nonzero"
         fill="#000000"
         fill-opacity="1"
         d="m 70.886719,264.22656 h 18.117187 v 18.11719 H 70.886719 Z m 0,0"
         id="path858" />
      <path
         fill-rule="nonzero"
         fill="#000000"
         fill-opacity="1"
         d="m 88.476562,264.22656 h 18.117188 v 18.11719 H 88.476562 Z m 0,0"
         id="path860" />
      <path
         fill-rule="nonzero"
         fill="#000000"
         fill-opacity="1"
         d="m 106.07031,264.22656 h 18.11719 v 18.11719 h -18.11719 z m 0,0"
         id="path862" />
      <path
         fill-rule="nonzero"
         fill="#000000"
         fill-opacity="1"
         d="m 141.77734,266.64062 c 0,4.23047 -13.89062,15.70313 -18.11718,15.70313 v -18.11719 h 15.70312 c 1.20703,0 2.41406,1.20703 2.41406,2.41406 z m 0,0"
         id="path864" />
      <path
         fill-rule="nonzero"
         fill="#000000"
         fill-opacity="1"
         d="m 194.02734,264.22656 h 18.11719 v 18.11719 h -18.11719 z m 0,0"
         id="path866" />
      <path
         fill-rule="nonzero"
         fill="#000000"
         fill-opacity="1"
         d="m 246.80078,279.92969 c 0,-4.22657 13.89063,-15.70313 18.11719,-15.70313 v 18.11719 h -15.70313 c -1.20703,0 -2.41406,-1.20703 -2.41406,-2.41406 z m 0,0"
         id="path868" />
      <path
         fill-rule="nonzero"
         fill="#000000"
         fill-opacity="1"
         d="m 264.39453,264.22656 h 18.11719 v 18.11719 h -18.11719 z m 0,0"
         id="path870" />
      <path
         fill-rule="nonzero"
         fill="#000000"
         fill-opacity="1"
         d="m 281.98437,264.22656 h 18.11719 v 18.11719 h -18.11719 z m 0,0"
         id="path872" />
      <path
         fill-rule="nonzero"
         fill="#000000"
         fill-opacity="1"
         d="m 299.57422,282.34375 v -18.11719 h 12.08203 c 3.32031,0 6.03906,2.71875 6.03906,6.03906 v 12.07813 z m 0,0"
         id="path874" />
      <path
         fill-rule="nonzero"
         fill="#000000"
         fill-opacity="1"
         d="m 351.06641,272.68359 c -2.71875,-5.13672 -8.45313,-8.75781 -12.6836,-8.45703 -3.92578,0.30078 -4.83203,4.83203 -2.11328,9.66406 3.01953,5.13282 8.45703,8.75782 12.68359,8.45313 4.22657,-0.30078 5.13672,-4.82813 2.11329,-9.66016 z m 0,0"
         id="path876" />
      <path
         fill-rule="nonzero"
         fill="#000000"
         fill-opacity="1"
         d="m 407.53906,264.22656 c 4.23047,0 15.70313,13.89063 15.70313,18.11719 H 405.125 v -15.70313 c 0,-1.20703 1.20703,-2.41406 2.41406,-2.41406 z m 0,0"
         id="path878" />
      <path
         fill-rule="nonzero"
         fill="#000000"
         fill-opacity="1"
         d="m 440.30859,264.22656 h 18.11719 v 18.11719 h -18.11719 z m 0,0"
         id="path880" />
      <path
         fill-rule="nonzero"
         fill="#000000"
         fill-opacity="1"
         d="M 35.703125,281.82031 H 53.820312 V 299.9375 H 35.703125 Z m 0,0"
         id="path882" />
      <path
         fill-rule="nonzero"
         fill="#000000"
         fill-opacity="1"
         d="m 86.589844,299.9375 c -4.226563,0 -15.703125,-13.89063 -15.703125,-18.11719 h 18.117187 v 15.69922 c 0,1.21094 -1.207031,2.41797 -2.414062,2.41797 z m 0,0"
         id="path884" />
      <path
         fill-rule="nonzero"
         fill="#000000"
         fill-opacity="1"
         d="m 141.25391,297.51953 c 0,-4.22656 13.89062,-15.69922 18.11718,-15.69922 v 18.11719 h -15.70312 c -1.20703,0 -2.41406,-1.20703 -2.41406,-2.41797 z m 0,0"
         id="path886" />
      <path
         fill-rule="nonzero"
         fill="#000000"
         fill-opacity="1"
         d="m 176.96094,284.23437 c 0,4.23047 -13.89063,15.70313 -18.11719,15.70313 v -18.11719 h 15.70312 c 1.20704,0 2.41407,1.20703 2.41407,2.41406 z m 0,0"
         id="path888" />
      <path
         fill-rule="nonzero"
         fill="#000000"
         fill-opacity="1"
         d="M 212.14453,281.82031 V 299.9375 H 200.0625 c -3.32031,0 -6.03516,-2.71875 -6.03516,-6.03906 v -12.07813 z m 0,0"
         id="path890" />
      <path
         fill-rule="nonzero"
         fill="#000000"
         fill-opacity="1"
         d="m 229.73437,284.23437 c 0,4.23047 -13.89062,15.70313 -18.11718,15.70313 v -18.11719 h 15.70312 c 1.20703,0 2.41406,1.20703 2.41406,2.41406 z m 0,0"
         id="path892" />
      <path
         fill-rule="nonzero"
         fill="#000000"
         fill-opacity="1"
         d="m 264.39453,281.82031 h 18.11719 v 18.11719 h -18.11719 z m 0,0"
         id="path894" />
      <path
         fill-rule="nonzero"
         fill="#000000"
         fill-opacity="1"
         d="m 281.98437,281.82031 h 18.11719 v 18.11719 h -18.11719 z m 0,0"
         id="path896" />
      <path
         fill-rule="nonzero"
         fill="#000000"
         fill-opacity="1"
         d="m 299.57422,281.82031 h 18.12109 v 12.07813 c 0,3.32031 -2.71875,6.03906 -6.03906,6.03906 h -12.08203 z m 0,0"
         id="path898" />
      <path
         fill-rule="nonzero"
         fill="#000000"
         fill-opacity="1"
         d="m 354.76562,281.82031 c 4.23047,0 15.70313,13.89063 15.70313,18.11719 h -18.11719 v -15.70313 c 0,-1.20703 1.20703,-2.41406 2.41406,-2.41406 z m 0,0"
         id="path900" />
      <path
         fill-rule="nonzero"
         fill="#000000"
         fill-opacity="1"
         d="m 387.53516,297.51953 c 0,-4.22656 13.89062,-15.69922 18.11718,-15.69922 v 18.11719 h -15.70312 c -1.20703,0 -2.41406,-1.20703 -2.41406,-2.41797 z m 0,0"
         id="path902" />
      <path
         fill-rule="nonzero"
         fill="#000000"
         fill-opacity="1"
         d="m 405.125,281.82031 h 18.11719 V 299.9375 H 405.125 Z m 0,0"
         id="path904" />
      <path
         fill-rule="nonzero"
         fill="#000000"
         fill-opacity="1"
         d="m 458.42578,281.82031 v 18.11719 h -12.07812 c -3.32032,0 -6.03907,-2.71875 -6.03907,-6.03906 v -12.07813 z m 0,0"
         id="path906" />
      <path
         fill-rule="nonzero"
         fill="#000000"
         fill-opacity="1"
         d="m 457.89844,299.9375 v -18.11719 h 12.08203 c 3.32031,0 6.03515,2.71485 6.03515,6.03516 v 12.08203 z m 0,0"
         id="path908" />
      <path
         fill-rule="nonzero"
         fill="#000000"
         fill-opacity="1"
         d="m 35.703125,299.41016 h 18.117187 v 18.11718 H 35.703125 Z m 0,0"
         id="path910" />
      <path
         fill-rule="nonzero"
         fill="#000000"
         fill-opacity="1"
         d="m 122.375,307.86719 c -2.71484,-5.13672 -8.45312,-8.75782 -12.68359,-8.45703 -3.92578,0.30078 -4.82813,4.82812 -2.11328,9.66406 3.01953,5.13281 8.45703,8.7539 12.68359,8.45312 4.22656,-0.30078 5.13672,-4.83203 2.11328,-9.66015 z m 0,0"
         id="path912" />
      <path
         fill-rule="nonzero"
         fill="#000000"
         fill-opacity="1"
         d="m 264.91797,317.52734 h -18.11719 v -12.07812 c 0,-3.32422 2.71875,-6.03906 6.03906,-6.03906 h 12.07813 z m 0,0"
         id="path914" />
      <path
         fill-rule="nonzero"
         fill="#000000"
         fill-opacity="1"
         d="m 264.39453,299.41016 h 18.11719 v 12.07812 c 0,3.32031 -2.71875,6.03906 -6.03906,6.03906 h -12.07813 z m 0,0"
         id="path916" />
      <path
         fill-rule="nonzero"
         fill="#000000"
         fill-opacity="1"
         d="m 335.28516,317.52734 h -18.11719 v -12.07812 c 0,-3.32422 2.71484,-6.03906 6.03906,-6.03906 h 12.07813 z m 0,0"
         id="path918" />
      <path
         fill-rule="nonzero"
         fill="#000000"
         fill-opacity="1"
         d="m 334.75781,299.41016 h 18.1211 v 18.11718 h -18.1211 z m 0,0"
         id="path920" />
      <path
         fill-rule="nonzero"
         fill="#000000"
         fill-opacity="1"
         d="m 352.35156,299.41016 h 18.11719 v 18.11718 h -18.11719 z m 0,0"
         id="path922" />
      <path
         fill-rule="nonzero"
         fill="#000000"
         fill-opacity="1"
         d="m 405.125,299.41016 h 18.11719 v 18.11718 H 405.125 Z m 0,0"
         id="path924" />
      <path
         fill-rule="nonzero"
         fill="#000000"
         fill-opacity="1"
         d="m 473.60156,317.52734 c -4.22656,0 -15.70312,-13.89062 -15.70312,-18.11718 h 18.11718 v 15.70312 c 0,1.20703 -1.20703,2.41406 -2.41406,2.41406 z m 0,0"
         id="path926" />
      <path
         fill-rule="nonzero"
         fill="#000000"
         fill-opacity="1"
         d="m 51.40625,335.12109 c -4.226562,0 -15.703125,-13.89453 -15.703125,-18.12109 h 18.117187 v 15.70312 c 0,1.20704 -1.207031,2.41797 -2.414062,2.41797 z m 0,0"
         id="path928" />
      <path
         fill-rule="nonzero"
         fill="#000000"
         fill-opacity="1"
         d="M 123.66016,332.70312 C 123.66016,328.47656 137.55078,317 141.77734,317 v 18.12109 h -15.69921 c -1.21094,0 -2.41797,-1.21093 -2.41797,-2.41797 z m 0,0"
         id="path930" />
      <path
         fill-rule="nonzero"
         fill="#000000"
         fill-opacity="1"
         d="m 141.25391,317 h 18.11718 v 18.12109 h -18.11718 z m 0,0"
         id="path932" />
      <path
         fill-rule="nonzero"
         fill="#000000"
         fill-opacity="1"
         d="m 158.84375,317 h 18.11719 v 18.12109 h -18.11719 z m 0,0"
         id="path934" />
      <path
         fill-rule="nonzero"
         fill="#000000"
         fill-opacity="1"
         d="m 176.4375,317 h 18.11719 v 18.12109 H 176.4375 Z m 0,0"
         id="path936" />
      <path
         fill-rule="nonzero"
         fill="#000000"
         fill-opacity="1"
         d="M 194.02734,335.12109 V 317 h 12.07813 c 3.32031,0 6.03906,2.71875 6.03906,6.03906 v 12.08203 z m 0,0"
         id="path938" />
      <path
         fill-rule="nonzero"
         fill="#000000"
         fill-opacity="1"
         d="m 262.50391,335.12109 c -4.22657,0 -15.70313,-13.89453 -15.70313,-18.12109 h 18.11719 v 15.70312 c 0,1.20704 -1.20703,2.41797 -2.41406,2.41797 z m 0,0"
         id="path940" />
      <path
         fill-rule="nonzero"
         fill="#000000"
         fill-opacity="1"
         d="M 281.98437,332.70312 C 281.98437,328.47656 295.875,317 300.10156,317 v 18.12109 h -15.70312 c -1.20703,0 -2.41407,-1.21093 -2.41407,-2.41797 z m 0,0"
         id="path942" />
      <path
         fill-rule="nonzero"
         fill="#000000"
         fill-opacity="1"
         d="m 299.57422,317 h 18.12109 v 18.12109 h -18.12109 z m 0,0"
         id="path944" />
      <path
         fill-rule="nonzero"
         fill="#000000"
         fill-opacity="1"
         d="m 317.16797,317 h 18.11719 v 18.12109 h -18.11719 z m 0,0"
         id="path946" />
      <path
         fill-rule="nonzero"
         fill="#000000"
         fill-opacity="1"
         d="m 334.75781,317 h 18.1211 v 18.12109 h -18.1211 z m 0,0"
         id="path948" />
      <path
         fill-rule="nonzero"
         fill="#000000"
         fill-opacity="1"
         d="m 352.35156,317 h 18.11719 v 18.12109 h -18.11719 z m 0,0"
         id="path950" />
      <path
         fill-rule="nonzero"
         fill="#000000"
         fill-opacity="1"
         d="m 369.94141,317 h 18.11718 v 18.12109 h -18.11718 z m 0,0"
         id="path952" />
      <path
         fill-rule="nonzero"
         fill="#000000"
         fill-opacity="1"
         d="m 387.53516,317 h 18.11718 v 18.12109 h -18.11718 z m 0,0"
         id="path954" />
      <path
         fill-rule="nonzero"
         fill="#000000"
         fill-opacity="1"
         d="m 405.125,317 h 18.11719 v 18.12109 H 405.125 Z m 0,0"
         id="path956" />
      <path
         fill-rule="nonzero"
         fill="#000000"
         fill-opacity="1"
         d="m 440.83594,319.41797 c 0,4.23047 -13.89063,15.70312 -18.11719,15.70312 V 317 h 15.69922 c 1.20703,0 2.41797,1.21094 2.41797,2.41797 z m 0,0"
         id="path958" />
      <path
         fill-rule="nonzero"
         fill="#000000"
         fill-opacity="1"
         d="m 194.55469,334.59375 v 18.11719 h -12.08203 c -3.32032,0 -6.03516,-2.71875 -6.03516,-6.03907 v -12.07812 z m 0,0"
         id="path960" />
      <path
         fill-rule="nonzero"
         fill="#000000"
         fill-opacity="1"
         d="m 194.02734,334.59375 h 18.11719 v 18.11719 h -18.11719 z m 0,0"
         id="path962" />
      <path
         fill-rule="nonzero"
         fill="#000000"
         fill-opacity="1"
         d="m 229.73437,337.00781 c 0,4.23047 -13.89062,15.70313 -18.11718,15.70313 v -18.11719 h 15.70312 c 1.20703,0 2.41406,1.20703 2.41406,2.41406 z m 0,0"
         id="path964" />
      <path
         fill-rule="nonzero"
         fill="#000000"
         fill-opacity="1"
         d="m 299.57422,334.59375 h 18.12109 v 18.11719 h -18.12109 z m 0,0"
         id="path966" />
      <path
         fill-rule="nonzero"
         fill="#000000"
         fill-opacity="1"
         d="m 317.16797,334.59375 h 18.11719 v 18.11719 h -18.11719 z m 0,0"
         id="path968" />
      <path
         fill-rule="nonzero"
         fill="#000000"
         fill-opacity="1"
         d="m 387.53516,334.59375 h 18.11718 v 18.11719 h -18.11718 z m 0,0"
         id="path970" />
      <path
         fill-rule="nonzero"
         fill="#000000"
         fill-opacity="1"
         d="m 405.125,334.59375 h 18.11719 v 18.11719 H 405.125 Z m 0,0"
         id="path972" />
      <path
         fill-rule="nonzero"
         fill="#000000"
         fill-opacity="1"
         d="m 194.02734,352.18359 h 18.11719 v 18.11719 h -18.11719 z m 0,0"
         id="path974" />
      <path
         fill-rule="nonzero"
         fill="#000000"
         fill-opacity="1"
         d="m 247.32812,370.30078 h -18.11718 v -12.07812 c 0,-3.32032 2.71484,-6.03907 6.03906,-6.03907 h 12.07812 z m 0,0"
         id="path976" />
      <path
         fill-rule="nonzero"
         fill="#000000"
         fill-opacity="1"
         d="m 264.91797,354.59766 c 0,4.23046 -13.89063,15.70312 -18.11719,15.70312 v -18.11719 h 15.70313 c 1.20703,0 2.41406,1.20703 2.41406,2.41407 z m 0,0"
         id="path978" />
      <path
         fill-rule="nonzero"
         fill="#000000"
         fill-opacity="1"
         d="m 317.69531,352.18359 v 18.11719 h -12.08203 c -3.32031,0 -6.03906,-2.71484 -6.03906,-6.03516 v -12.08203 z m 0,0"
         id="path980" />
      <path
         fill-rule="nonzero"
         fill="#000000"
         fill-opacity="1"
         d="m 317.16797,352.18359 h 18.11719 v 18.11719 h -18.11719 z m 0,0"
         id="path982" />
      <path
         fill-rule="nonzero"
         fill="#000000"
         fill-opacity="1"
         d="m 368.65625,360.64062 c -2.71484,-5.13671 -8.45313,-8.75781 -12.68359,-8.45703 -3.92579,0.30078 -4.82813,4.83203 -2.11329,9.66407 3.01954,5.13281 8.45704,8.75781 12.6836,8.45312 4.22656,-0.30078 5.13672,-4.82812 2.11328,-9.66016 z m 0,0"
         id="path984" />
      <path
         fill-rule="nonzero"
         fill="#000000"
         fill-opacity="1"
         d="m 387.53516,352.18359 h 18.11718 v 18.11719 h -18.11718 z m 0,0"
         id="path986" />
      <path
         fill-rule="nonzero"
         fill="#000000"
         fill-opacity="1"
         d="m 405.125,352.18359 h 18.11719 v 18.11719 H 405.125 Z m 0,0"
         id="path988" />
      <path
         fill-rule="nonzero"
         fill="#000000"
         fill-opacity="1"
         d="m 440.30859,367.88672 c 0,-4.22656 13.89063,-15.70313 18.11719,-15.70313 v 18.11719 h -15.70312 c -1.20704,0 -2.41407,-1.20703 -2.41407,-2.41406 z m 0,0"
         id="path990" />
      <path
         fill-rule="nonzero"
         fill="#000000"
         fill-opacity="1"
         d="m 457.89844,370.30078 v -18.11719 h 12.08203 c 3.32031,0 6.03515,2.71875 6.03515,6.03907 v 12.07812 z m 0,0"
         id="path992" />
      <path
         fill-rule="nonzero"
         fill="#000000"
         fill-opacity="1"
         d="M 194.55469,387.89453 H 176.4375 V 375.8125 c 0,-3.32031 2.71484,-6.03516 6.03516,-6.03516 h 12.08203 z m 0,0"
         id="path994" />
      <path
         fill-rule="nonzero"
         fill="#000000"
         fill-opacity="1"
         d="m 194.02734,369.77734 h 18.11719 v 18.11719 h -18.11719 z m 0,0"
         id="path996" />
      <path
         fill-rule="nonzero"
         fill="#000000"
         fill-opacity="1"
         d="m 229.21094,369.77734 h 18.11718 v 18.11719 h -18.11718 z m 0,0"
         id="path998" />
      <path
         fill-rule="nonzero"
         fill="#000000"
         fill-opacity="1"
         d="m 298.29297,378.23437 c -2.71875,-5.13671 -8.45313,-8.76171 -12.6836,-8.45703 -3.92578,0.30078 -4.83203,4.82813 -2.11328,9.66407 3.01563,5.13281 8.45703,8.7539 12.6836,8.45312 4.22656,-0.30078 5.13281,-4.83203 2.11328,-9.66016 z m 0,0"
         id="path1000" />
      <path
         fill-rule="nonzero"
         fill="#000000"
         fill-opacity="1"
         d="m 317.16797,369.77734 h 18.11719 v 18.11719 h -18.11719 z m 0,0"
         id="path1002" />
      <path
         fill-rule="nonzero"
         fill="#000000"
         fill-opacity="1"
         d="m 387.53516,369.77734 h 18.11718 v 18.11719 h -18.11718 z m 0,0"
         id="path1004" />
      <path
         fill-rule="nonzero"
         fill="#000000"
         fill-opacity="1"
         d="m 405.125,369.77734 h 18.11719 v 18.11719 H 405.125 Z m 0,0"
         id="path1006" />
      <path
         fill-rule="nonzero"
         fill="#000000"
         fill-opacity="1"
         d="m 440.83594,372.19141 c 0,4.23046 -13.89063,15.70312 -18.11719,15.70312 v -18.11719 h 15.69922 c 1.20703,0 2.41797,1.20703 2.41797,2.41407 z m 0,0"
         id="path1008" />
      <path
         fill-rule="nonzero"
         fill="#000000"
         fill-opacity="1"
         d="m 457.89844,369.77734 h 18.11718 v 18.11719 h -18.11718 z m 0,0"
         id="path1010" />
      <path
         fill-rule="nonzero"
         fill="#000000"
         fill-opacity="1"
         d="m 176.4375,387.36719 h 18.11719 v 18.11718 H 176.4375 Z m 0,0"
         id="path1012" />
      <path
         fill-rule="nonzero"
         fill="#000000"
         fill-opacity="1"
         d="m 194.02734,387.36719 h 18.11719 v 18.11718 h -18.11719 z m 0,0"
         id="path1014" />
      <path
         fill-rule="nonzero"
         fill="#000000"
         fill-opacity="1"
         d="m 211.61719,387.36719 h 18.11718 v 18.11718 h -18.11718 z m 0,0"
         id="path1016" />
      <path
         fill-rule="nonzero"
         fill="#000000"
         fill-opacity="1"
         d="m 229.21094,387.36719 h 18.11718 v 12.08203 c 0,3.32031 -2.71875,6.03515 -6.03906,6.03515 h -12.07812 z m 0,0"
         id="path1018" />
      <path
         fill-rule="nonzero"
         fill="#000000"
         fill-opacity="1"
         d="m 317.16797,387.36719 h 18.11719 v 18.11718 h -18.11719 z m 0,0"
         id="path1020" />
      <path
         fill-rule="nonzero"
         fill="#000000"
         fill-opacity="1"
         d="m 334.75781,387.36719 h 18.1211 v 18.11718 h -18.1211 z m 0,0"
         id="path1022" />
      <path
         fill-rule="nonzero"
         fill="#000000"
         fill-opacity="1"
         d="m 352.35156,387.36719 h 18.11719 v 18.11718 h -18.11719 z m 0,0"
         id="path1024" />
      <path
         fill-rule="nonzero"
         fill="#000000"
         fill-opacity="1"
         d="m 369.94141,387.36719 h 18.11718 v 18.11718 h -18.11718 z m 0,0"
         id="path1026" />
      <path
         fill-rule="nonzero"
         fill="#000000"
         fill-opacity="1"
         d="m 387.53516,387.36719 h 18.11718 v 18.11718 h -18.11718 z m 0,0"
         id="path1028" />
      <path
         fill-rule="nonzero"
         fill="#000000"
         fill-opacity="1"
         d="m 440.30859,403.07031 c 0,-4.22656 13.89063,-15.70312 18.11719,-15.70312 v 18.11718 h -15.70312 c -1.20704,0 -2.41407,-1.20703 -2.41407,-2.41406 z m 0,0"
         id="path1030" />
      <path
         fill-rule="nonzero"
         fill="#000000"
         fill-opacity="1"
         d="m 457.89844,387.36719 h 18.11718 v 18.11718 h -18.11718 z m 0,0"
         id="path1032" />
      <path
         fill-rule="nonzero"
         fill="#000000"
         fill-opacity="1"
         d="m 176.4375,404.96094 h 18.11719 v 18.11718 H 176.4375 Z m 0,0"
         id="path1034" />
      <path
         fill-rule="nonzero"
         fill="#000000"
         fill-opacity="1"
         d="m 246.80078,420.66016 c 0,-4.22657 13.89063,-15.69922 18.11719,-15.69922 v 18.11718 h -15.70313 c -1.20703,0 -2.41406,-1.21093 -2.41406,-2.41796 z m 0,0"
         id="path1036" />
      <path
         fill-rule="nonzero"
         fill="#000000"
         fill-opacity="1"
         d="m 264.39453,404.96094 h 18.11719 v 18.11718 h -18.11719 z m 0,0"
         id="path1038" />
      <path
         fill-rule="nonzero"
         fill="#000000"
         fill-opacity="1"
         d="m 281.98437,404.96094 h 18.11719 v 18.11718 h -18.11719 z m 0,0"
         id="path1040" />
      <path
         fill-rule="nonzero"
         fill="#000000"
         fill-opacity="1"
         d="m 299.57422,404.96094 h 18.12109 v 18.11718 h -18.12109 z m 0,0"
         id="path1042" />
      <path
         fill-rule="nonzero"
         fill="#000000"
         fill-opacity="1"
         d="m 317.16797,404.96094 h 18.11719 v 18.11718 h -18.11719 z m 0,0"
         id="path1044" />
      <path
         fill-rule="nonzero"
         fill="#000000"
         fill-opacity="1"
         d="m 369.94141,404.96094 h 18.11718 v 18.11718 h -18.11718 z m 0,0"
         id="path1046" />
      <path
         fill-rule="nonzero"
         fill="#000000"
         fill-opacity="1"
         d="m 387.53516,404.96094 h 18.11718 v 18.11718 h -18.11718 z m 0,0"
         id="path1048" />
      <path
         fill-rule="nonzero"
         fill="#000000"
         fill-opacity="1"
         d="m 457.89844,404.96094 h 18.11718 v 18.11718 h -18.11718 z m 0,0"
         id="path1050" />
      <path
         fill-rule="nonzero"
         fill="#000000"
         fill-opacity="1"
         d="m 194.55469,422.55078 v 18.11719 h -12.08203 c -3.32032,0 -6.03516,-2.71485 -6.03516,-6.03906 v -12.07813 z m 0,0"
         id="path1052" />
      <path
         fill-rule="nonzero"
         fill="#000000"
         fill-opacity="1"
         d="m 212.14453,424.96484 c 0,4.23047 -13.89062,15.70313 -18.11719,15.70313 v -18.11719 h 15.70313 c 1.20703,0 2.41406,1.20703 2.41406,2.41406 z m 0,0"
         id="path1054" />
      <path
         fill-rule="nonzero"
         fill="#000000"
         fill-opacity="1"
         d="m 264.39453,422.55078 h 18.11719 v 18.11719 h -18.11719 z m 0,0"
         id="path1056" />
      <path
         fill-rule="nonzero"
         fill="#000000"
         fill-opacity="1"
         d="m 281.98437,422.55078 h 18.11719 v 12.07813 c 0,3.32421 -2.71484,6.03906 -6.03515,6.03906 h -12.08204 z m 0,0"
         id="path1058" />
      <path
         fill-rule="nonzero"
         fill="#000000"
         fill-opacity="1"
         d="m 317.16797,422.55078 h 18.11719 v 18.11719 h -18.11719 z m 0,0"
         id="path1060" />
      <path
         fill-rule="nonzero"
         fill="#000000"
         fill-opacity="1"
         d="m 334.75781,422.55078 h 18.1211 v 18.11719 h -18.1211 z m 0,0"
         id="path1062" />
      <path
         fill-rule="nonzero"
         fill="#000000"
         fill-opacity="1"
         d="m 352.35156,422.55078 h 18.11719 v 18.11719 h -18.11719 z m 0,0"
         id="path1064" />
      <path
         fill-rule="nonzero"
         fill="#000000"
         fill-opacity="1"
         d="m 369.94141,422.55078 h 18.11718 v 18.11719 h -18.11718 z m 0,0"
         id="path1066" />
      <path
         fill-rule="nonzero"
         fill="#000000"
         fill-opacity="1"
         d="m 387.53516,422.55078 h 18.11718 v 18.11719 h -18.11718 z m 0,0"
         id="path1068" />
      <path
         fill-rule="nonzero"
         fill="#000000"
         fill-opacity="1"
         d="m 425.13281,422.55078 c 4.23047,0 15.70313,13.89063 15.70313,18.11719 h -18.11719 v -15.70313 c 0,-1.20703 1.20703,-2.41406 2.41406,-2.41406 z m 0,0"
         id="path1070" />
      <path
         fill-rule="nonzero"
         fill="#000000"
         fill-opacity="1"
         d="m 457.89844,422.55078 h 18.11718 v 18.11719 h -18.11718 z m 0,0"
         id="path1072" />
      <path
         fill-rule="nonzero"
         fill="#000000"
         fill-opacity="1"
         d="m 264.91797,458.26172 h -18.11719 v -12.08203 c 0,-3.32032 2.71875,-6.03516 6.03906,-6.03516 h 12.07813 z m 0,0"
         id="path1074" />
      <path
         fill-rule="nonzero"
         fill="#000000"
         fill-opacity="1"
         d="m 264.39453,440.14453 h 18.11719 v 12.07813 c 0,3.32031 -2.71875,6.03906 -6.03906,6.03906 h -12.07813 z m 0,0"
         id="path1076" />
      <path
         fill-rule="nonzero"
         fill="#000000"
         fill-opacity="1"
         d="m 299.57422,455.84375 c 0,-4.22656 13.89453,-15.69922 18.12109,-15.69922 v 18.11719 h -15.70312 c -1.20703,0 -2.41797,-1.20703 -2.41797,-2.41797 z m 0,0"
         id="path1078" />
      <path
         fill-rule="nonzero"
         fill="#000000"
         fill-opacity="1"
         d="m 317.16797,440.14453 h 18.11719 v 12.07813 c 0,3.32031 -2.71875,6.03906 -6.03907,6.03906 h -12.07812 z m 0,0"
         id="path1080" />
      <path
         fill-rule="nonzero"
         fill="#000000"
         fill-opacity="1"
         d="m 352.35156,440.14453 h 18.11719 v 18.11719 h -18.11719 z m 0,0"
         id="path1082" />
      <path
         fill-rule="nonzero"
         fill="#000000"
         fill-opacity="1"
         d="m 369.94141,440.14453 h 18.11718 v 18.11719 h -18.11718 z m 0,0"
         id="path1084" />
      <path
         fill-rule="nonzero"
         fill="#000000"
         fill-opacity="1"
         d="m 387.53516,440.14453 h 18.11718 v 12.07813 c 0,3.32031 -2.71875,6.03906 -6.03906,6.03906 h -12.07812 z m 0,0"
         id="path1086" />
      <path
         fill-rule="nonzero"
         fill="#000000"
         fill-opacity="1"
         d="m 422.71875,440.14453 h 18.11719 v 18.11719 h -18.11719 z m 0,0"
         id="path1088" />
      <path
         fill-rule="nonzero"
         fill="#000000"
         fill-opacity="1"
         d="m 457.89844,440.14453 h 18.11718 v 18.11719 h -18.11718 z m 0,0"
         id="path1090" />
      <path
         fill-rule="nonzero"
         fill="#000000"
         fill-opacity="1"
         d="m 192.74219,466.19141 c -2.71875,-5.13672 -8.45313,-8.75782 -12.6836,-8.45704 -3.92578,0.30079 -4.83203,4.82813 -2.11328,9.66407 3.01953,5.13281 8.45703,8.7539 12.6836,8.45312 4.22656,-0.30078 5.13671,-4.83203 2.11328,-9.66015 z m 0,0"
         id="path1092" />
      <path
         fill-rule="nonzero"
         fill="#000000"
         fill-opacity="1"
         d="m 262.50391,475.85156 c -4.22657,0 -15.70313,-13.89062 -15.70313,-18.11719 h 18.11719 v 15.70313 c 0,1.20703 -1.20703,2.41406 -2.41406,2.41406 z m 0,0"
         id="path1094" />
      <path
         fill-rule="nonzero"
         fill="#000000"
         fill-opacity="1"
         d="m 298.29297,466.19141 c -2.71875,-5.13672 -8.45313,-8.75782 -12.6836,-8.45704 -3.92578,0.30079 -4.83203,4.82813 -2.11328,9.66407 3.01563,5.13281 8.45703,8.7539 12.6836,8.45312 4.22656,-0.30078 5.13281,-4.83203 2.11328,-9.66015 z m 0,0"
         id="path1096" />
      <path
         fill-rule="nonzero"
         fill="#000000"
         fill-opacity="1"
         d="m 334.75781,473.4375 c 0,-4.22656 13.89453,-15.70313 18.1211,-15.70313 v 18.11719 h -15.70313 c -1.20703,0 -2.41797,-1.20703 -2.41797,-2.41406 z m 0,0"
         id="path1098" />
      <path
         fill-rule="nonzero"
         fill="#000000"
         fill-opacity="1"
         d="m 352.35156,457.73437 h 18.11719 v 18.11719 h -18.11719 z m 0,0"
         id="path1100" />
      <path
         fill-rule="nonzero"
         fill="#000000"
         fill-opacity="1"
         d="m 369.94141,457.73437 h 18.11718 v 12.07813 c 0,3.32031 -2.71484,6.03906 -6.03515,6.03906 h -12.08203 z m 0,0"
         id="path1102" />
      <path
         fill-rule="nonzero"
         fill="#000000"
         fill-opacity="1"
         d="m 405.125,473.4375 c 0,-4.22656 13.89062,-15.70313 18.11719,-15.70313 v 18.11719 h -15.70313 c -1.20703,0 -2.41406,-1.20703 -2.41406,-2.41406 z m 0,0"
         id="path1104" />
      <path
         fill-rule="nonzero"
         fill="#000000"
         fill-opacity="1"
         d="m 422.71875,457.73437 h 18.11719 v 18.11719 h -18.11719 z m 0,0"
         id="path1106" />
      <path
         fill-rule="nonzero"
         fill="#000000"
         fill-opacity="1"
         d="m 440.30859,457.73437 h 18.11719 v 18.11719 h -18.11719 z m 0,0"
         id="path1108" />
      <path
         fill-rule="nonzero"
         fill="#000000"
         fill-opacity="1"
         d="m 457.89844,457.73437 h 18.11718 v 12.07813 c 0,3.32031 -2.71484,6.03906 -6.03515,6.03906 h -12.08203 z m 0,0"
         id="path1110" />
      <path
         fill-rule="nonzero"
         fill="#000000"
         fill-opacity="1"
         d="M 35.703125,35.535156 V 158.67578 H 158.83984 V 35.535156 Z M 141.25391,141.08984 H 53.289062 V 53.121094 h 87.964848 z m 0,0"
         id="path1112" />
      <path
         fill-rule="nonzero"
         fill="#000000"
         fill-opacity="1"
         d="M 352.35156,35.535156 V 158.67578 H 475.48828 V 35.535156 Z M 457.90234,141.08984 H 369.9375 V 53.121094 h 87.96484 z m 0,0"
         id="path1114" />
      <path
         fill-rule="nonzero"
         fill="#000000"
         fill-opacity="1"
         d="M 35.703125,352.18359 V 475.32031 H 158.83984 V 352.18359 Z M 141.25391,457.73437 H 53.289062 v -87.96484 h 87.964848 z m 0,0"
         id="path1116" />
      <path
         fill-rule="nonzero"
         fill="#000000"
         fill-opacity="1"
         d="m 70.886719,70.71875 h 52.769531 v 52.76953 H 70.886719 Z m 0,0"
         id="path1118" />
      <path
         fill-rule="nonzero"
         fill="#000000"
         fill-opacity="1"
         d="m 387.53516,70.71875 h 52.76953 v 52.76953 h -52.76953 z m 0,0"
         id="path1120" />
      <path
         fill-rule="nonzero"
         fill="#000000"
         fill-opacity="1"
         d="m 70.886719,387.36719 h 52.769531 v 52.76953 H 70.886719 Z m 0,0"
         id="path1122" />
    </g>
  </defs>
  <use
     xlink:href="#source-5"
     transform="translate(-0.519531,-0.355469)"
     id="use1127" />
</svg>
